<?xml version="1.0" encoding="UTF-8" standalone="no"?>
<!DOCTYPE svg PUBLIC "-//W3C//DTD SVG 1.1//EN" "http://www.w3.org/Graphics/SVG/1.1/DTD/svg11.dtd">
<svg width="100%" height="100%" viewBox="0 0 24 24" version="1.1" xmlns="http://www.w3.org/2000/svg" xmlns:xlink="http://www.w3.org/1999/xlink" xml:space="preserve" xmlns:serif="http://www.serif.com/" style="fill-rule:evenodd;clip-rule:evenodd;stroke-linejoin:round;stroke-miterlimit:2;">
    <rect x="0" y="0" width="24" height="24" style="fill:none;fill-rule:nonzero;"/>
    <path d="M4,6L2,6L2,20C2,21.1 2.9,22 4,22L18,22L18,20L4,20L4,6ZM20,2L8,2C6.9,2 6,2.9 6,4L6,16C6,17.1 6.9,18 8,18L20,18C21.1,18 22,17.1 22,16L22,4C22,2.9 21.1,2 20,2ZM19,11L9,11L9,9L19,9L19,11ZM15,15L9,15L9,13L15,13L15,15ZM19,7L9,7L9,5L19,5L19,7Z" style="fill:white;fill-rule:nonzero;"/>
</svg>
